<svg width="9" height="46" viewBox="0 0 9 46" fill="none" xmlns="http://www.w3.org/2000/svg">
<path d="M8.76345 42.3949L1.84736 24.827C1.69567 24.4437 1.6106 23.9263 1.6106 23.3871C1.6106 22.8479 1.69567 22.3304 1.84736 21.9471L8.76195 4.37546C8.91355 3.98978 8.9985 3.47066 8.9985 2.92991C8.9985 2.38916 8.91355 1.87004 8.76195 1.48435C8.68788 1.29443 8.59937 1.14349 8.50161 1.04043C8.40385 0.937372 8.29883 0.884277 8.19273 0.884277C8.08663 0.884277 7.98161 0.937372 7.88385 1.04043C7.78609 1.14349 7.69757 1.29443 7.62351 1.48435L0.708925 19.0485C0.254563 20.2054 0 21.762 0 23.3833C0 25.0047 0.254563 26.5612 0.708925 27.7181L7.62351 45.2823C7.6976 45.4728 7.78621 45.6242 7.88411 45.7276C7.98201 45.831 8.0872 45.8843 8.19348 45.8843C8.29976 45.8843 8.40495 45.831 8.50285 45.7276C8.60075 45.6242 8.68936 45.4728 8.76345 45.2823C8.91505 44.8966 9 44.3775 9 43.8367C9 43.296 8.91505 42.7769 8.76345 42.3912" fill="black"/>
</svg>
