<svg width="9" height="46" viewBox="0 0 9 46" fill="none" xmlns="http://www.w3.org/2000/svg">
<path d="M0.236555 42.3949L7.15264 24.827C7.30433 24.4437 7.3894 23.9263 7.3894 23.3871C7.3894 22.8479 7.30433 22.3304 7.15264 21.9471L0.238054 4.37546C0.0864499 3.98978 0.00150052 3.47066 0.00150052 2.92991C0.00150052 2.38916 0.0864499 1.87004 0.238054 1.48435C0.312116 1.29443 0.400634 1.14349 0.498393 1.04043C0.596153 0.937372 0.701175 0.884277 0.80727 0.884277C0.913366 0.884277 1.01839 0.937372 1.11615 1.04043C1.21391 1.14349 1.30243 1.29443 1.37649 1.48435L8.29107 19.0485C8.74544 20.2054 9 21.762 9 23.3833C9 25.0047 8.74544 26.5612 8.29107 27.7181L1.37649 45.2823C1.3024 45.4728 1.21379 45.6242 1.11589 45.7276C1.01799 45.831 0.912797 45.8843 0.806521 45.8843C0.700244 45.8843 0.595046 45.831 0.497148 45.7276C0.39925 45.6242 0.310639 45.4728 0.236555 45.2823C0.0849501 44.8966 0 44.3775 0 43.8367C0 43.296 0.0849501 42.7769 0.236555 42.3912" fill="black"/>
</svg>
